<?xml version="1.0" encoding="UTF-8"?>
<svg id="Calque_1" xmlns="http://www.w3.org/2000/svg" xmlns:xlink="http://www.w3.org/1999/xlink" version="1.1" viewBox="0 0 750 500">
  <!-- Generator: Adobe Illustrator 29.3.0, SVG Export Plug-In . SVG Version: 2.1.0 Build 146)  -->
  <defs>
    <style>
      .st0 {
        fill: none;
      }

      .st1 {
        fill: #f9fce8;
      }

      .st2 {
        fill: #37a3b8;
      }

      .st3 {
        fill: #fe9f26;
      }

      .st4 {
        fill: #007b93;
      }

      .st5 {
        fill: #68bdca;
      }

      .st6 {
        fill: #feb832;
      }
    </style>
  </defs>
  <g id="BACKGROUND">
    <rect class="st6" y="0" width="750" height="579.9"/>
  </g>
  <path class="st3" d="M750,319.7v86.4c-18.5,14.5-39.1,24.4-62,22.1-11.5-1.2-22.4-5.5-33.2-9.8-21-8.4-42.5-17-59.4-32.1-11.2-10-20.8-23.2-35.3-27.5-35.1-10.4-66.4,38.1-102.3,30.5-13.2-2.8-24.6-13.1-38.1-12.7-26.8.7-36.4,39.9-62.1,47.5-17,5-34.7-5.6-52.5-5.4-13.2.2-25.6,6.5-38.5,9.6-13.9,3.4-22.2-.4-34.6-5.4-9.9-4-22.9-4.6-33.4-3.6-14.1,1.3-27.5,6.9-40.9,11.3-27.4,9.1-59,13.5-83.8-1.1-15.7-9.2-26.4-24.6-39.3-37.4C25.2,382.8,12.9,374.3,0,372.2v-64.7c108.6-14.6,216.5-35,325.6-45.2,116.2-10.9,235.1-10.1,347.6,20.9,27.2,7.5,55.8,18.5,76.8,36.4Z"/>
  <path class="st5" d="M750,59.8v303.8c-13,4.4-26,8.7-39.1,13.1-9.5,3.2-19,6.4-28.9,7.6-18.1,2.2-36.4-2.4-53.6-8.5-30-10.6-58.5-25.7-84-44.8-20.9-15.6-42.1-34.6-68.2-35.4-29.3-.8-53.3,21.7-75.7,40.6-16.9,14.3-35,27.3-53.8,38.9-9.7,6-19.9,11.6-31.1,13.6-10.5,1.8-21.2.3-31.9.2-59-.1-116.5,46.3-172.4,27.2C65.7,400.6,41.9,347,0,325.7V59.8h750Z"/>
  <g>
    <path class="st2" d="M750,21v84.6c-2.1,3.8-4.2,7.6-6.3,11.4-12,21.8-24.2,43.8-41.5,61-17.3,17.2-40.6,29-64,25.9-6.5-.9-12.9-2.8-19.4-2.1-12.7,1.5-22.2,12.9-28.8,24.7s-11.7,24.9-21.2,33.9c-16.6,15.8-43,14.5-62.2,2.8-23.1-14.1-41-42.2-53.5-66.7-8.8-17-19.4-32.9-31.7-47.2-2-2.3-4-4.6-6.6-6.1-3.8-2.1-8.2-2.3-12.4-2-26.5,1.9-49.9,19.8-68.1,40.6s-33,45.1-51.8,65.2c-8.4,8.9-17.9,17.3-29.2,20.8-21.3,6.6-43.3-4.7-64.8-10.5-4.6-1.2-9.3-2.2-13.9-1.2-4.1.9-7.7,3.3-11,6-9.4,7.6-16.8,17.6-25.9,25.6-9.1,7.9-21.1,13.8-32.5,10.5-6.6-1.9-12.1-6.5-17.3-11.2-11.5-10.5-22.3-22.2-30.2-36.1-10.9-19.2-15.7-41.8-25.5-61.7C24.9,174.7,13.6,161.1,0,155.1V30.7c45.4-.9,90.9-1.8,136.3-2.7,115.1-2.3,230.2-4.6,345.4-5.7,89.4-.9,178.9-1.1,268.3-1.3Z"/>
    <path class="st2" d="M204.7,273.1c18.8,29.6-36.1,30.4-51.9,27.4-3-.6-6.6-2-7-5.1-.2-1.5.6-3,1.3-4.3,10-17.2,41.3-43.5,57.5-18Z"/>
    <path class="st2" d="M218.3,291.2c2.1,1,4.5,1.5,6.8,1.2,23.7-3.7-2.2-30.5-12.1-15.5-3.7,5.7,0,11.8,5.4,14.4Z"/>
    <path class="st2" d="M32.2,216.7c-2.5,4.3-7.8,6.4-12.8,6.1-5-.3-9.6-2.6-13.7-5.4C3.8,216.1,1.9,214.5,0,212.7v-47.1c6.4,3.4,11.6,8.8,16.3,14.4,4.1,4.8,7.9,9.9,11.5,15.1,2.2,3.2,4.3,6.6,5.4,10.3,1.1,3.8,1,8-.9,11.4Z"/>
  </g>
  <g>
    <path class="st0" d="M237.8,354.3c-1.7-1.1-3.7-1.6-5.7-1.8-7.9,3.7-15.2,8.1-23.3,11.4-6,2.4-11.7,5.4-14.2,11.9-2.5,6.8-2.1,17.3,7.6,16.7,4.5-.3,8.9-2.4,12-5.8,3-3.4,4.7-7.8,7.7-11.2,2.4-2.7,5.6-4.6,8.6-6.6.4-.3.8-.6,1.3-.9,3.4-2.4,12.1-9.9,6.1-13.7Z"/>
    <path class="st0" d="M231.6,373.3c.1,0,.3-.1.4-.2,0,0,0-.1-.1-.2-.1.1-.2.3-.3.4Z"/>
    <path class="st0" d="M189.9,368.9c-3.5-1.8-11.3,1.2-14.9,2-5.3,1.3-10.5,3-15.3,5.6-2.8,1.5-6.8,3.8-2.7,7.1,1.2,1,5.8-.6,7.5-.8,2.8-.3,5.5-.7,8.3-1,4-.5,8.3-.7,11.9-2.5,2.4-1.2,9.9-8,5.2-10.4Z"/>
    <path class="st0" d="M182.7,390c-2.7-1.7-5.7-3.4-9-3.4-5.7-.1-10,4.6-13.9,8.1-2.4,2.1-4.9,4.1-7.6,5.9-2.8,1.9-5.6,3.6-8.1,5.9-2.2,2-4.3,4.5-5.4,7.3-.6,1.5-.9,3-.8,4.5,0,.5,0,1.5.3,2.2,5.8.4,11.7,0,17.6-1.4,12.8-3,23.9-10.3,34.6-18.3,0-1.7-.6-3.4-1.5-5-1.5-2.4-3.8-4.3-6.1-5.9Z"/>
    <path class="st0" d="M240.9,370.1s0,0,0-.1c0,0,0-.2,0-.2v-.2c-.2-.1-.3-.3-.4-.4,0-.1-.1-.2-.2-.3,0,0-.2-.2-.3-.2h0s-.2-.1-.2-.1c-.1,0-.2-.1-.4-.2,0,0-.1,0-.2-.1,0,0,0,0,0,0h-.2q0,0,0,0s0,0,0,0h-.2s-.2,0-.2,0c0,0-.1,0-.2,0h-.2c0,0-.3.2-.4.2t0,0h-.2c0,.1-.4.4-.4.4h-.1c-.1.2-.2.3-.4.4l-.4.4v.2c-.3.2-.4.4-.5.7h0c0,0,0,0,0,.1,0,0,0,0,0,.1,0,.1,0,.2,0,.3v.2c0,0,0,0,0,0v.2s0,0,0,0c0,0,0,0,0,0,0,0,.1.1.1.2,0,0,0,0,.1.1h.1c0,0,0,.1.1.2,0,0,0,0,0,0,1.6-.5,3.3-1,5-1.4,0,0,0,0,0-.1,0-.1,0-.2-.1-.3ZM238.8,368c0,0-.2,0,0,0h0Z"/>
    <path class="st0" d="M375,329.5c-.6-1.3-1.1-2.6-1.5-4-8.5,9.3-17.7,18.2-27.8,25.5-1.4,2.3-2.1,5.1-2.2,7.8,0,0,0,.2,0,.3.7,1.6,1,3.3,1,5.1.2.3.4.6.7.9,9.3-4.2,18.2-9.5,26.5-15.7.5-.6,1.1-1.2,1.6-1.9,2.4-2.9,3.7-6,3.8-9.7,0-1.7,0-3.4-.3-5-.7-1-1.3-2.1-1.8-3.2Z"/>
    <path class="st0" d="M300.7,362c.8-.5,2.3-1.4,2.3-2.5-.4,0-.9-.2-1.3-.2-2.1-.4-6.5-2.4-8,.2-.5.8-.6,1.5-.5,2,.5,2.2,5.9,1.4,7.5.6Z"/>
    <path class="st0" d="M136.9,398.4c-1-1.9-4.9-3.6-6.7-4.3-.5-.2-1-.4-1.5-.4-.5,0-1,0-1.6,0-2.4.2-4.8.2-7.2,0-3.1-.2-6.1-.8-9.3-.9-2,0-9.4-.8-10.8.6-4.1,2.4-3.9,8-1.8,11.6.1.2.2.4.4.6,7.1,4.7,14.6,8.6,22.4,11.2,6.3,0,12.5-2.1,15.7-7.6,2-3.3,2.4-7.6.5-10.9Z"/>
    <path class="st0" d="M276.9,355.8c-4.2-1.9-8.3-4-12.6-5.6-2.1-.8-4.2-1.5-6.5-2-2.3.3-4.5.9-6.5,2.1-1.3.8-2.4,1.7-3.4,2.8,0,.1-.1.3-.2.5-.3.4-.6.8-.9,1.1-.2.3-.4.6-.5,1-.2.5-.4,1-.5,1.4,0,.2,0,.4.1.6.5,3.1-.6,6.6.7,9.5.4.8,1,1.6,1.6,2.2,14.5-1.2,29.1,2.9,43.7,4.5,0-.1,0-.2-.1-.3-.1-.9,0-1.9.2-2.8-.8-8-8.7-12-15.2-15Z"/>
    <path class="st0" d="M339.6,360.2c-1.9-2.9-6.4-1.9-9.3-.4-4.5,2.4-8,6-12.7,8-2.3,1-4.9,1.6-7.4,1.3-2.5-.3-4.8-1.3-7.2-1.8-2.2-.5-4.4-.2-6.2,1.3-.3.2-.5.5-.8.7.3,1.4.3,2.9.2,4.3,0,.2,0,.5-.1.7.9,0,1.8.1,2.7.2,14.3.7,28.2-2,41.4-7.3.2-.6.3-1.3.4-2-.6-1.5-.8-3.2-.9-4.7,0-.1,0-.2,0-.3Z"/>
    <path class="st0" d="M27.7,319.2c-1.8-2.8-3.9-5.4-5.9-8-3-3.9-6.4-8.5-11.5-9.7-6.1-1.5-6.7,7-5.2,11,.3.8.7,1.4,1.1,2.1,1.4,1.7,2.3,2.6,3.3,4.4,1.2,2.1,2.4,3.9,4.2,5.5,1.9,1.6,5.1,3.9,8,4.5,1.1.2,2.1.2,3-.2,4.5-1.6,5.2-5.8,2.9-9.5Z"/>
    <path class="st0" d="M28.2,331.6c0,.3,0,.6,0,1,.3,2,3.8,5.6,5.9,5.9,4.6.6.9-6.3-.6-8.1-1.4-1.6-4.8-.9-5.3,1.2Z"/>
    <path class="st0" d="M745.7,349.8c0,.1,0,.2,0,.3,0,0,.2-.1.3-.2,0,0-.1,0-.2-.1Z"/>
    <path class="st0" d="M340.4,354.4c-.4.2-.8.5-1.1.7.3.1.6.2.8.4,0-.4.2-.7.3-1Z"/>
    <path class="st0" d="M133.5,391c-.1,0-.3.1-.5.2.1,0,.3.1.4.2,0-.1,0-.2,0-.4Z"/>
    <path class="st0" d="M97.5,385.5c.2-.3.4-.6.7-.8-5.8-3.7-11.4-7.8-17.8-10.4-1.2-.5-2.5-.9-3.8-1.2,0,.4-.3.9-.6,1.2-1.6,1.8-1.6,4.4-.8,6.6.9,2.6,3,4.6,5,6.4,3.3,2.9,8.6,7,13.2,4.6.7-1.3,1.4-2.5,2.3-3.5.3-.3.6-.6.9-1,.3-.7.5-1.3.9-1.9Z"/>
    <path class="st0" d="M142.6,397.2c2.9.3,5.7-1.1,7.7-3,2.4-2.3,4.3-6,1.2-8.3-2.5-1.8-5.5-1-8.2.5-2,1.1-5,1.7-6.1,3.6-.4.7-.5,1.5-.3,2.7.5,2.4,3.4,4.2,5.7,4.4Z"/>
    <path class="st0" d="M249,347.9c-.1,0-.3,0-.4,0,0,0,0,.2,0,.2.1,0,.3-.2.4-.3Z"/>
    <path class="st0" d="M312.1,365.5c2-.2,6.3-.9,5-3.8-1.2-2.8-8.2-1.3-10.2,0-1.1.6-1.6,1.6-1,3,1,2.6,3.9,1.1,6.2,1Z"/>
    <path class="st0" d="M245.2,348.5h0c-1.1,0-2.3.3-3.4.6,0,0,0,0-.1.1l-.2.2s0,.1-.1.1c0,0-.1.2-.2.2,0,0,0,.1,0,.2,0,0,0,0,0,.1,0,0,0,.2,0,.2h0c0,0,0,0,0,.1,0,.1,0,.3.1.4.1.1.2.2.3.3.6.5,1.2.9,1.8,1.4,0,0,.1,0,.2,0,0,0,0,0,0,0,0,0,0,0,.2,0,0,0,0,0,0,0,0,0,0,0-.1,0,0,0,0,0,0,0,0,0,0,0,0,0h0s0,0,0,0c0,0,.2,0,.2,0h.2c0,0,0-.1,0-.1,0,0,.2-.1.2-.2l.2-.2v-.2c.2-.1.3-.2.3-.3,0,0,0,0,0,0,0,0,.1-.3.1-.4,0,0,0-.2,0-.3,0-.3.1-.5.2-.8h0s0,0,0,0h0c0-.2,0-.3,0-.5,0-.2,0-.4,0-.7,0,0,0-.4,0-.4Z"/>
    <path class="st0" d="M678.5,357.7c0-.2.2-.3.3-.5,0,0-.1,0-.2,0,0,.2,0,.4,0,.6Z"/>
    <path class="st0" d="M688.2,329.8c-.4-1.9-1.4-4.3-3.6-4.6-2-.3-3.8,1.2-5.1,2.5-1.7,1.8-2.9,4.1-3.4,6.5-.6,2.5-.4,5.2-.4,7.8,0,2.4.3,6.9,2.7,8.4,3.9,2.4,7.4-4,9.7-6.1,0-.1,0-.2.1-.3.7-2.3.8-4.6.7-7,0-2.4-.2-4.9-.7-7.2Z"/>
    <path class="st0" d="M674.3,351.2s0-.1,0-.2c-1.5-2.4-4.5-3.4-7.2-3.8-1.4-.2-2.7-.2-4,.2-1.9,2.1-3.9,4-6,5.8-3.8,3-7.8,5.7-12.2,7.7-1,.5-2.1.9-3.2,1.1-.9.1-1.8.1-2.6.3-3.8.7-7.3,3.9-5.1,8,1.2,2.3,3.7,3.7,6.1,4.5,6.3,2.2,13.4,2,19.6-.5,4.6-1.9,10.8-6.8,13.9-12.3,1.7-3.1,2.5-6.5,1.4-9.7-.1-.4-.3-.7-.5-1Z"/>
    <path class="st0" d="M634.7,358.4c2,0,3.3-1.3,3.8-3,0,0,0,0,0,0-6.2-3.6-9.9-10-16.5-13.2-.5-.2-1-.5-1.5-.7.2.5.5,1,.7,1.2,1,1.3,2.2,2.5,3.3,3.7.1.1.2.2.3.4,3.4,2.7,5.8,6.6,6,11,.9.8,2.7.7,3.8.6Z"/>
    <path class="st0" d="M705.5,320.8c2.8-2.2,6.5-5.2,6.3-9.2,0-1.2-.5-2.3-1.2-3.3-6.5-2.7-12.9-.7-18.5,4.6-2.8,2.6-4.4,6-3.3,8.6.6,1.5,2.2,2.6,4.8,3.3,4.3,1.1,8.6-1.5,11.8-4.1Z"/>
    <path class="st0" d="M621.3,347.6c-2.9-1.7-6.3-2.4-9.7-2.3-1.5.7-3.2,1.1-5,1.2-.7.5-1.3,1.2-1.7,2,.2,1.6,1.1,3.1,2.3,4.3.1.1.2.2.4.3,3.6,1.8,6.8,4.3,9.9,6.8.3.2.5.4.8.6,1.6.8,3.3,1.6,5,2.2,1,.3,1.8.5,2.7.3,1-1,1.6-2.4,1.8-3.9-.9-1.5-1-3.4-1.7-4.9-1.1-2.5-2.9-4.6-4.8-6.6Z"/>
    <path class="st0" d="M728.8,356.3c.2,0,.3.1.5.2-.1-.2-.2-.3-.4-.5,0,.1-.1.2-.2.3Z"/>
    <path class="st0" d="M735.8,340c-1.3-1.6-2.6-5-5.1-3-1.9,1.4-.7,4.7-.5,6.7.3,3.1.6,7.4,3.4,9.3,2.1,1.3,5.8-.7,7.7-2.8,1.1-1.2,1.6-2.5.9-3.2-2.3-2.1-4.5-4.5-6.4-6.9Z"/>
    <path class="st0" d="M722.8,337.9c-.8-.9-1.7-1.1-2.9-1.1-1.3,0-2.6,0-3.8-.6-3.7-1.8-3.6-6.3-6.1-9-1.5-1.6-3.8-1.2-5.6-.5-2.2.9-4.1,2.5-5.7,4.2-.9,1-3.2,2.7-3.6,4-1.5,5.1,6.2,4,8.6,4.8,4.1,1.4,7.1,4.8,10.3,7.7,2.1,1.9,4.8,4.4,7.6,5,1.6.3,2.7,0,3.4-.5,1.7-1.5,1.1-5.2.4-7.7-.6-2.1-1.2-4.6-2.6-6.2Z"/>
    <path class="st0" d="M612.6,340.1s0-.1.1-.2c0,0,0,0,0-.1,0-.4,0-.7.2-1-6.5-1.9-13.1-3.1-19.3-5.5-1.5,2.4-1,5.4,1.2,7.3,2.6,2.2,6.3,2.4,9.5,2.4,3,0,6.4-.5,8.3-3Z"/>
    <path class="st0" d="M716.7,314.3c-3.1.8-3.3,7.5-3.1,10,.5,4.8,3.2,9.4,8.2,10.5,3.3.7,5-.5,5.7-2.4.8-2.2.2-5.2-1-7.5-1.5-3-5.3-11.7-9.9-10.5Z"/>
    <path class="st0" d="M406.7,300.2c-.3-.4-.7-1-1.3-1.2-.7-.2-1.5.1-2.1.3-3.2,1-6.2,2.4-9.2,4-1.2.6-2.3,1.4-3.4,2.1-2.8,3.3-5.5,6.6-8.3,9.9-1.3,1.5-2.6,3-3.9,4.6,0,.2.1.4.2.6.5,1.9,1,3.7,1.3,5.6.3,1.5.6,3.1.9,4.7.7,1,1.6,1.9,2.7,2.4,1.4.6,3.1.6,4.6.4.7-.1,1.5-.3,2.2-.5,2.7-2.7,5.3-5.4,7.8-8.2,4.3-4.7,8.1-8.9,12-12.6,0-2.5-.3-5-1.2-7.5-.6-1.6-1.4-3.2-2.4-4.6Z"/>
    <path class="st0" d="M598,346.2c-.2-.1-.4-.3-.7-.4-1.2-.4-2.4-.9-3.4-1.5-.6-.1-1.1-.2-1.6-.1-.8.1-1.5.5-1.9,1.1-.5.8-.3,1.8,0,2.7.2.5.4,1,.7,1.5.4.1.8.2,1.3.3,2.6.5,5.3.7,7.9,1.2.1-.2.2-.5.3-.7.4-1.6-1.1-3.1-2.5-4Z"/>
    <path class="st0" d="M456.7,275.4c0,0-.1,0-.1,0-3.8-.5-10-2.1-12.8,1.3-1.9,2.4-2.1,6.2-2.3,9.1,0,.9-.4,2.5.4,3.1.5.3,1.2.4,1.8.4.7.1,1.3.2,2,.3,2.2-.8,4.6-1.6,7.1-2.4,4.1-1.2,8.3-2.2,12.5-2.8.3-.9.3-1.8,0-2.8-1.2-3.7-5.2-5.4-8.7-6.3Z"/>
    <path class="st0" d="M427.5,277.2c-2.1.6-5.8,1.6-5.3,4.5.6,3.5,5.7,4.3,8.3,2.6,1.2-.9,3.4-2.8,4.3-4.5.2-.4.3-.8.4-1.2.3-3.7-5.4-2.1-7.6-1.4Z"/>
    <path class="st0" d="M432.2,291.2c-3.7.2-7.5,2.1-10.7,3.8,0,0,0,0,0,0-2.2.7-6.5,6.4-3.5,7.9.2.1.5.2.9.3,2.8.5,6.1-3.3,8.3-4.8,1.8-1.1,4-1.7,5.7-3.1,2-1.6,3.1-4.4-.6-4.2Z"/>
    <path class="st0" d="M419.3,287.5c.3-1.4.1-3.2-.4-4.6-.3-.7-.7-1.2-1.2-1.5-.4.2-.7.4-1,.6-2,1.2-14,8-9.5,12,2.2,1.9,7.9-1.3,9.6-2.8,1.1-1,2.3-2.1,2.6-3.6Z"/>
    <path class="st0" d="M671,340.1c-.3,0-.6-.1-.9,0-1.5,0-3.8,1.5-2.7,3.2,2.1,3.1,7.3-2.1,3.6-3.1Z"/>
    <path class="st0" d="M586.3,334.3c-.4-1.6-1-3.1-2-4.4-.4-.5-.8-1-1.3-1.4-1.5-.4-3-.7-4.4-.1-.6.2-1,.6-1.4,1.1-.1.3-.3.5-.5.8,0,.1-.2.3-.3.4-.3.6-.5,1.3-.7,1.9-.9,3.3-1.1,7.8,1.2,10.7,1.1,1.4,2.7,1.5,4.3,1.6,1.4,0,3.1,0,4.4-.5,1.4-.6,1.2-2.6,1.2-3.9,0-2,0-4-.5-6Z"/>
    <path class="st0" d="M568.4,313.8c-.7-.4-1.3-.8-2-1.1-5-2.4-10.4-1.3-15.8-.2-.3.4-.6.8-.8,1.2-.6,1.2-.9,2.7-.8,4,.1,1.2.6,2.3,1.1,3.4,4.2,4.4,8.5,8.7,12.9,12.7,2.9,0,5.5-1.4,7.9-3.1,1.4-1,3-2,3.5-3.6.5-1.5.2-3.2-.3-4.8-1-3.4-3.1-6.3-5.8-8.6Z"/>
    <path class="st0" d="M474.7,279.3c-1.5.5-2.4,1.6-3.1,3,0,0,0,.2-.1.3,0,0,0,.1,0,.2.3.3.7.6,1,1,2.9-.2,5.7-.2,8.6-.1.5-.4.8-.8.9-1.3,0-.2,0-.2,0-.4-2.4-.9-4.9-1.8-7.4-2.5Z"/>
    <path class="st0" d="M590.8,341.1c0,.1,0,.2,0,.3,0,0,.1,0,.2,0,0,0,0-.2-.1-.2Z"/>
    <path class="st1" d="M749.6,359.2c-1.8,1.2-4.1,1.4-4.9-.8-1-2.6,1.8-6.2,4.5-6.1.3.2.5.3.8.5v-9.8c-3.2-2.4-6-5.3-8.3-8.5-9.2-12.6-14-29.8-30.6-34.9-16.5-5.1-27.5,10.1-36.7,21.1-6.3,7.5-12.3,15.4-19,22.6-2.3,2.5-5.4,5.8-9,6-4.1.2-7.2-3.8-9.8-6.5-10.8-10.9-24.6-11.2-38.3-16.1-13.3-4.7-19.6-20.5-33.8-23.2-8.8-1.7-17.2,3.4-25.9,1.6-2.8-.5-5.4-1.6-7.9-2.9-1.5-1.2-3-2.4-4.5-3.5-2.3-1.7-4.7-3.2-7.2-4.7-.5-.4-1-.8-1.4-1.1-11.1-8.9-23.5-15.5-36.9-20.2-14-4.8-29.2-7.4-44-5.7-14.6,1.7-27,8.3-37.7,18.2-11.9,11-21.2,24.5-32.3,36.4-11.4,12.2-25.4,28.1-42.6,31.4-15,2.9-30.3-3.4-44.5-7.5-14.5-4.2-29.6-7.1-44.2-1.8-4,1.5-7.8,3.4-11.6,5.4-5.7,1.2-11.2,3.6-16.4,6-2.8,1.2-5.6,2.6-8,4.6-3.7.9-7.6,1.5-11.4,2.2-8.2,1.3-16.4,2.6-24.1,5.8-7.4,3.1-13.9,7.6-20.7,11.8-7,4.2-14.6,8.2-23,7.8-7.6-.4-14.3-4.5-20.5-8.5-5.9-3.8-11.6-7.7-18.2-10.2-7.8-2.9-17-1.3-24.2-5.6-12.3-7.5-14.6-26.6-19.7-38.8-5.2-12.5-12.3-25.1-22.9-33.9-4.4-3.7-9.3-6.5-14.6-8.6v7c1,0,2.2.5,2.9.6,1.5.4,2.9,1,4,2.1,1.8,1.9,1.5,4.5-.9,5.6-1.9.9-4,.2-5.6-1.1,0-.3-.1-.7-.3-.9v45.3c43.6,14,66.2,68.7,110.8,81.9,46.9,14,94.1-24,143-23.6,19.2.1,38.4,6.3,57.4,3.9,52.5-6.6,78.7-71.3,128.7-88.6,40.6-14,84.5,6.9,120.2,30.7s72.1,52,115,54.1c26.3,1.3,51.5-7.6,74.9-19v-20.5c-.1,0-.2.2-.4.3ZM745.7,349.8c0,0,.1,0,.2.1,0,0-.2.1-.3.2,0-.1,0-.2.1-.3ZM24.8,328.6c-1,.3-2,.4-3,.2-3-.5-6.1-2.8-8-4.5-1.9-1.6-3-3.4-4.2-5.5-1-1.8-1.9-2.7-3.3-4.4-.4-.6-.8-1.3-1.1-2.1-1.5-3.9-.9-12.4,5.2-11,5,1.2,8.5,5.8,11.5,9.7,2,2.6,4.1,5.2,5.9,8,2.3,3.7,1.6,7.8-2.9,9.5ZM34.1,338.4c-2-.3-5.6-3.9-5.9-5.9,0-.3,0-.7,0-1,.5-2.1,3.8-2.8,5.3-1.2,1.5,1.7,5.1,8.6.6,8.1ZM340.4,354.4c-.1.4-.2.7-.3,1-.3-.1-.5-.3-.8-.4.4-.2.8-.4,1.1-.7ZM306.9,361.6c2-1.2,9-2.7,10.2,0,1.3,2.9-3,3.7-5,3.8-2.3.2-5.2,1.7-6.2-1-.5-1.4,0-2.3,1-3ZM249,347.9c-.1,0-.3.2-.4.3,0,0,0-.2,0-.2.1,0,.3,0,.4,0ZM137.3,390c1.1-1.9,4.1-2.5,6.1-3.6,2.7-1.5,5.7-2.4,8.2-.5,3.1,2.3,1.2,5.9-1.2,8.3-2,2-4.8,3.3-7.7,3-2.3-.2-5.2-2-5.7-4.5-.2-1.1,0-2,.3-2.7ZM133.5,391c0,.1,0,.2,0,.4-.1,0-.3-.1-.4-.2.1,0,.3-.1.5-.2ZM93.4,391.9c-4.6,2.4-9.8-1.7-13.2-4.6-2-1.8-4.1-3.8-5-6.4-.8-2.2-.8-4.8.8-6.6.3-.3.5-.8.6-1.2,1.3.3,2.6.7,3.8,1.2,6.3,2.6,12,6.7,17.8,10.4-.2.3-.5.5-.7.8-.4.6-.7,1.2-.9,1.9-.3.3-.6.6-.9,1-.9,1-1.6,2.3-2.3,3.6ZM120.7,416.9c-7.8-2.6-15.3-6.5-22.4-11.2-.1-.2-.3-.4-.4-.6-2-3.6-2.3-9.2,1.8-11.6,1.4-1.4,8.8-.7,10.8-.6,3.2,0,6.2.6,9.3.9,2.4.2,4.8.2,7.2,0,.5,0,1,0,1.6,0,.5,0,1,.2,1.5.4,1.9.7,5.7,2.4,6.7,4.3,1.8,3.4,1.4,7.6-.5,10.9-3.2,5.4-9.4,7.6-15.7,7.6ZM155.8,419.2c-5.9,1.4-11.8,1.8-17.6,1.4-.3-.7-.3-1.7-.3-2.2,0-1.5.3-3.1.8-4.5,1.1-2.9,3.1-5.3,5.4-7.3,2.5-2.2,5.4-4,8.1-5.9,2.7-1.8,5.2-3.7,7.6-5.9,3.9-3.5,8.2-8.3,13.9-8.1,3.2,0,6.3,1.7,9,3.4,2.4,1.5,4.6,3.5,6.1,5.9.9,1.5,1.5,3.2,1.5,5-10.7,8.1-21.8,15.3-34.6,18.3ZM184.7,379.4c-3.6,1.8-7.9,2.1-11.9,2.5-2.8.3-5.5.7-8.3,1-1.8.2-6.3,1.8-7.5.8-4.1-3.3,0-5.5,2.7-7.1,4.8-2.7,10-4.4,15.3-5.6,3.7-.9,11.4-3.8,14.9-2,4.7,2.4-2.8,9.2-5.2,10.4ZM221.8,375.4c-3,3.4-4.6,7.8-7.7,11.2-3,3.4-7.4,5.5-12,5.8-9.7.7-10.1-9.9-7.6-16.7,2.4-6.4,8.1-9.4,14.2-11.9,8.1-3.3,15.4-7.7,23.3-11.4,2,.2,4,.7,5.7,1.8,6,3.7-2.7,11.3-6.1,13.7-.4.3-.8.6-1.3.9-3,2-6.2,3.9-8.6,6.6ZM231.6,373.3c.1-.1.2-.3.3-.4,0,0,0,.2.1.2-.1,0-.3.1-.4.2ZM236,371.8s0,0,0,0c0,0-.1,0-.1,0h-.1c0-.1,0-.1-.1-.2,0,0-.1-.2-.1-.2,0,0,0,0,0,0,0,0,0,0,0,0v-.2s0,0,0,0v-.2c0-.1.1-.2.1-.3,0,0,0,0,0-.1,0,0,0,0,0,0h0c.1-.3.2-.5.4-.7v-.2c.1,0,.5-.4.5-.4.1-.1.2-.2.4-.3h.1c0-.1.4-.4.4-.4h.2q0-.1,0-.1c.1,0,.3-.1.4-.1h.2c0,0,.2,0,.2,0h.4s0,0,0,0t0,0h.2c0,0,0,0,0,0,0,0,.1,0,.2.1.1,0,.2.1.4.2h.2q0,.1,0,.1h0c0,0,.2.2.3.3,0,.1.1.2.2.3,0,.1.2.3.2.4v.2c.1,0,.2.1.2.2s0,.1,0,.1c0,0,0,.2.1.3,0,0,0,0,0,.1-1.7.4-3.4.8-5,1.4ZM245.3,350h0s0,0,0,0h0c0,.3-.1.6-.2.8,0,0,0,.2,0,.3,0,0-.1.3-.1.4,0,0,0,0,0,0,0,.1-.1.2-.2.3v.2c-.1,0-.3.2-.3.2,0,0-.2.1-.2.2h0s-.2.1-.2.1c0,0-.2,0-.2,0,0,0,0,0,0,0h0s0,0,0,0c-.1,0-.1,0,0,0,0,0,0,0,.1,0,0,0,0,0,0,0,0,0-.1,0-.2,0,0,0,0,0,0,0,0,0-.1,0-.2,0-.6-.5-1.2-.9-1.8-1.4,0,0-.2-.2-.3-.3,0-.1,0-.3-.1-.4,0,0,0,0,0,0h0c0-.1,0-.2,0-.3,0,0,0-.1,0-.1,0,0,0-.2,0-.2,0,0,.1-.2.2-.2,0,0,0-.1.1-.1l.2-.2s0,0,.1-.1c1.1-.3,2.3-.5,3.4-.7h0c0,.2,0,.5,0,.5,0,.2,0,.4,0,.7,0,.1,0,.3,0,.5ZM291.7,373.5c-1.5,5.8-8.3,9.9-14.1,6.5-3.4-2-5.4-6-8.9-7.8-2.7-1.3-5.9-1.1-8.9-.8-3,.4-6.1.8-9-.1-6.8-2.2-4.1-8.5-4.9-13.7,0-.2,0-.4-.1-.6.1-.5.3-1,.5-1.4.2-.3.3-.6.5-1,.4-.3.7-.7.9-1.1,0-.1.1-.3.2-.5,1-1.1,2.1-2,3.4-2.8,2-1.2,4.2-1.8,6.5-2.1,2.2.5,4.4,1.2,6.5,2,4.3,1.7,8.4,3.7,12.6,5.6,6.5,3,15.5,7.6,15.1,15.9,0,.6-.1,1.2-.3,1.8ZM293.3,361.4c-.1-.5,0-1.1.5-2,1.5-2.6,5.9-.6,8-.2.4,0,.9.2,1.3.2,0,1.1-1.5,2-2.3,2.5-1.6.9-6.9,1.6-7.5-.6ZM341.4,367.2c0,2.5-.8,5.1-2.5,7.2-1.2,1.4-2.8,2.3-4.4,3.1-6.5,3.2-13.4,5.4-20.5,6.5-4.4.6-9,.8-13-1-8-3.6-9.7-18.2,2-15.7,2.5.5,4.7,1.6,7.2,1.8,2.5.3,5.1-.3,7.4-1.3,4.7-2,8.2-5.6,12.7-8,6.8-3.6,11,1.6,11,7.4ZM373.5,347.6c-3.6,5.5-9.4,10.3-13.6,14.1-2.7,2.4-5.6,4.8-9.1,5-8.3.5-8-10.9-5.1-15.7,10.1-7.2,19.3-16.1,27.8-25.5.4,1.4,1,2.7,1.5,4,.5,1.1,1.1,2.2,1.8,3.2.2,1.7.3,3.4.3,5,0,3.5-1.5,6.8-3.5,9.9ZM398.4,324.9c-2.5,2.8-5.1,5.5-7.8,8.2-.8.2-1.5.3-2.2.5-1.5.2-3.2.2-4.6-.4-1.1-.5-2-1.4-2.7-2.4-.2-1.6-.5-3.2-.9-4.7-.4-1.9-.8-3.8-1.3-5.6,0-.2-.1-.4-.2-.6,1.3-1.5,2.6-3,3.9-4.6,2.7-3.2,5.5-6.6,8.3-9.9,1.1-.7,2.2-1.4,3.4-2.1,2.9-1.6,6-3,9.2-4,.6-.2,1.4-.6,2.1-.3.5.2.9.8,1.3,1.2,1,1.4,1.8,3,2.4,4.6.9,2.5,1.3,5,1.2,7.5-3.8,3.7-7.7,7.9-12,12.6ZM407.1,293.8c-4.5-3.9,7.5-10.8,9.5-12,.3-.2.7-.4,1-.6.5.4,1,.8,1.2,1.5.5,1.4.8,3.2.4,4.6-.3,1.5-1.5,2.6-2.6,3.6-1.7,1.5-7.4,4.7-9.6,2.8ZM432.8,295.5c-1.7,1.4-3.8,1.9-5.7,3.1-2.2,1.4-5.5,5.3-8.3,4.8-.3,0-.6-.2-.9-.3-3-1.5,1.3-7.2,3.5-7.9,0,0,0,0,0,0,3.2-1.8,7-3.7,10.7-3.8,3.7-.2,2.6,2.6.6,4.2ZM434.8,279.7c-.9,1.7-3.1,3.6-4.3,4.5-2.5,1.8-7.6.9-8.3-2.6-.5-2.9,3.2-3.9,5.3-4.5,2.2-.7,8-2.3,7.6,1.4,0,.4-.2.8-.4,1.2ZM465.4,284.5c-4.2.6-8.4,1.5-12.5,2.8-2.5.8-4.9,1.5-7.1,2.4-.7,0-1.3-.2-2-.3-.5,0-1.3-.1-1.8-.4-.9-.6-.5-2.3-.4-3.1.1-2.9.3-6.8,2.3-9.1,2.8-3.5,9-1.8,12.8-1.3,0,0,0,0,.1,0,3.5.9,7.5,2.5,8.7,6.3.3,1,.3,2,0,2.8ZM482,282.2c-.1.5-.5,1-.9,1.3-2.9,0-5.7,0-8.6.1-.4-.3-.7-.6-1-1,0,0,0-.1,0-.2,0,0,0-.2.1-.3.7-1.5,1.6-2.5,3.1-3,2.5.8,4.9,1.6,7.4,2.5,0,.2,0,.2,0,.4ZM670.1,340c.4,0,.7,0,.9,0,3.7,1.1-1.5,6.2-3.6,3.1-1.1-1.7,1.2-3.2,2.7-3.2ZM590.8,341.1c0,0,0,.2.2.2,0,0-.1,0-.2,0,0,0,0-.2,0-.3ZM574.5,327.2c-.5,1.7-2.1,2.7-3.5,3.6-2.4,1.7-5,3.1-7.9,3.1-4.4-3.9-8.7-8.3-12.9-12.7-.6-1.1-1-2.3-1.1-3.4-.1-1.3.2-2.8.8-4,.2-.5.5-.9.8-1.2,5.4-1.1,10.8-2.2,15.8.2.7.3,1.4.7,2,1.1,2.7,2.3,4.8,5.2,5.8,8.6.4,1.5.7,3.2.3,4.8ZM585.7,344.3c-1.3.6-3,.5-4.4.5-1.6,0-3.3-.2-4.3-1.6-2.3-2.8-2.1-7.4-1.2-10.7.2-.6.4-1.3.7-1.9,0-.1.2-.3.3-.4.2-.2.3-.5.5-.8.4-.4.8-.8,1.4-1.1,1.4-.6,2.9-.3,4.4.1.5.4.9.8,1.3,1.4,1,1.3,1.6,2.9,2,4.4.5,2,.6,4,.5,6,0,1.3.3,3.3-1.2,3.9ZM600.4,350.1c0,.2-.2.5-.3.7-2.6-.5-5.3-.7-7.9-1.2-.4,0-.9-.2-1.3-.3-.3-.5-.5-.9-.7-1.5-.3-.9-.4-1.9,0-2.7.4-.6,1.2-1,1.9-1.1.5,0,1.1,0,1.6.1,1.1.7,2.2,1.2,3.4,1.5.2.1.4.3.7.4,1.4.9,2.8,2.4,2.5,4ZM594.8,340.7c-2.2-1.9-2.8-4.9-1.2-7.3,6.2,2.4,12.8,3.6,19.3,5.5-.1.3-.2.7-.2,1,0,0,0,0,0,.1,0,0,0,.1-.1.2-1.9,2.5-5.4,3-8.3,3-3.2,0-6.9-.2-9.5-2.4ZM625.9,363.1c-.9.2-1.7,0-2.7-.3-1.7-.6-3.3-1.3-5-2.2-.3-.2-.5-.4-.8-.6-3.1-2.5-6.3-5-9.9-6.8-.1-.1-.2-.2-.4-.3-1.2-1.2-2.2-2.8-2.3-4.3.4-.8,1-1.5,1.7-2,1.7-.2,3.4-.6,5-1.2,3.4,0,6.8.6,9.7,2.3,1.8,2,3.6,4.1,4.8,6.6.7,1.6.8,3.5,1.7,4.9-.2,1.5-.8,2.9-1.8,3.9ZM624.9,346.8c-.1-.1-.2-.2-.3-.4-1.1-1.2-2.3-2.4-3.3-3.7-.2-.2-.5-.7-.7-1.2.5.2,1,.4,1.5.7,6.6,3.1,10.3,9.6,16.5,13.2,0,0,0,0,0,0-.5,1.7-1.8,2.9-3.8,3-1.1,0-2.9.1-3.8-.6-.2-4.4-2.6-8.2-6-11ZM673.4,361.9c-3.1,5.6-9.3,10.4-13.9,12.3-6.2,2.6-13.3,2.8-19.6.5-2.5-.9-4.9-2.2-6.1-4.5-2.1-4.1,1.3-7.2,5.1-8,.9-.2,1.7-.1,2.6-.3,1.1-.2,2.2-.6,3.2-1.1,4.4-2,8.5-4.7,12.2-7.7,2.2-1.7,4.1-3.7,6-5.8,1.3-.4,2.6-.3,4-.2,2.7.3,5.8,1.4,7.2,3.8,0,0,0,.1,0,.2.2.3.3.6.5,1,1.1,3.2.3,6.5-1.4,9.7ZM678.5,357.7c0-.2,0-.4,0-.6,0,0,.1,0,.2,0,0,.2-.2.3-.3.5ZM688.2,344c0,.1,0,.2-.1.3-2.3,2-5.8,8.5-9.7,6.1-2.3-1.4-2.6-5.9-2.7-8.4,0-2.6-.2-5.3.4-7.8.5-2.4,1.8-4.7,3.4-6.5,1.2-1.3,3.1-2.8,5.1-2.5,2.2.3,3.2,2.8,3.6,4.6.5,2.3.6,4.8.7,7.2,0,2.4,0,4.7-.7,7ZM688.9,321.5c-1.1-2.6.5-6,3.3-8.6,5.5-5.3,12-7.3,18.5-4.6.7,1,1.2,2.1,1.2,3.3.2,3.9-3.6,7-6.3,9.2-3.2,2.6-7.5,5.1-11.8,4.1-2.7-.7-4.2-1.9-4.9-3.3ZM725,351.8c-.7.6-1.8.9-3.4.5-2.9-.6-5.6-3.1-7.6-5-3.2-2.9-6.2-6.3-10.3-7.7-2.4-.8-10.1.3-8.6-4.8.4-1.3,2.7-3,3.6-4,1.6-1.7,3.5-3.3,5.7-4.2,1.8-.7,4.1-1.1,5.6.5,2.5,2.7,2.4,7.2,6.1,9,1.2.6,2.5.6,3.8.6,1.2,0,2.1.1,2.9,1.1,1.5,1.6,2,4.1,2.6,6.2.7,2.5,1.3,6.2-.4,7.7ZM727.5,332.4c-.7,1.9-2.4,3.1-5.7,2.4-5-1.1-7.7-5.6-8.2-10.5-.2-2.5,0-9.2,3.1-10,4.5-1.2,8.3,7.6,9.9,10.5,1.2,2.3,1.8,5.4,1,7.5ZM728.8,356.3c0-.1.1-.2.2-.3.1.2.2.4.4.5-.2,0-.3-.1-.5-.2ZM741.3,350.1c-1.9,2.1-5.7,4.2-7.7,2.8-2.9-1.9-3.2-6.2-3.4-9.3-.2-2-1.3-5.3.5-6.7,2.5-1.9,3.8,1.4,5.1,3,2,2.5,4.1,4.8,6.4,6.9.8.7.2,2-.9,3.2Z"/>
    <path class="st1" d="M238.8,368c-.2,0,0,0,0,0h0Z"/>
  </g>
  <path class="st2" d="M639.6,233.5c-9.5,10.2-27.3,17.5-41.2,13.6-1.3-.4-2.7-.9-3.6-2-.7-.9-1-2-1.1-3.1-.7-5.4,1.5-10.9,4.8-15.3s7.7-7.8,12-11.1c5.8-4.5,14.4-9.5,22.2-7.9,1.4.3,2.6,1.2,3.7,2,3.7,2.9,7.8,6.1,8.6,10.8.8,4.8-2.1,9.4-5.4,12.9Z"/>
  <path class="st2" d="M660.2,208c10,4.4,2.9,14.7-6.4,11-9.2-3.6-1.8-14.7,6.4-11Z"/>
  <path class="st2" d="M663.8,235.4c-2.8,4-11.8,16.1-18.2,9.6-.8-.8-.8-2.2-.5-3.3,1.8-7.4,8.9-13.1,16.1-14.3.8-.1,1.8-.2,2.5.1,1.4.6,2.1,2.3,1.9,3.8-.2,1.5-1,2.9-1.9,4.1Z"/>
  <path class="st5" d="M568,221.3c9.2-6.4,11,7.8,8.8,13.7-2.6,7-8.6,12.8-14.7,16.9-11.6,7.8-27,11.3-40.6,9.6-2.9-.4-5.9-1-8.3-2.6-2.5-1.6-4.3-4.4-4.1-7.3.3-3.3,3-5.9,5.8-7.6,9.3-5.9,20.8-6.9,31.2-10.6,7.9-2.8,15.1-7.3,22-12Z"/>
  <path class="st5" d="M593.6,206.8c1.7,6-8.4,15.3-13.4,9.1-3.5-4.4.8-11.8,5.6-13.2,3.1-.9,6.9.9,7.8,4Z"/>
  <g>
    <path class="st4" d="M750,0v90.4c-41.5,32.4-93,36.8-141,28.4-17.8-3.1-36.2-7.8-53.4-1.1-14.2,5.6-26.5,18.6-41,22.5-24.8,6.8-49-14.4-67.6-37.4-18.7-23.1-36.5-50.2-60.8-59.8-20-7.9-41.9-2.4-60.7,9.8-18.8,12.2-34.9,30.6-50.3,49.6-22.6,27.9-49.3,59.7-79.4,52.1-15.5-3.9-28.9-18.2-44.4-21.1-14.2-2.7-28.3,4.2-42.5,5.7-16.7,1.7-33.8-4.4-47.7-17.1-10.5-9.5-19-22.4-28.9-33C23,78.9,11.8,70.7,0,70.9V0h750Z"/>
    <path class="st4" d="M396.6,63.2c2.5-11.2-10.8-15.1-19.4-15.1-16.7,0-43.5,1.2-53.2,17.6-1.7,2.9-2.2,6.7-.5,9.5,2.4,3.9,7.7,4.5,12.2,4.8,16.7.9,34.3,1.6,49.5-5.3,5.1-2.3,10.2-6,11.4-11.5Z"/>
    <path class="st4" d="M319.9,95.7c1.2-4.9,1-10.4-3.4-10.9-5.2-.6-10.8,9.6-11.1,13.6-.1,1.5-.1,3.1.6,4.5,1.9,3.7,7.7,3.3,10.6.3,1.3-1.3,2.6-4.3,3.4-7.5Z"/>
    <path class="st4" d="M544,139.8c6.9-6.9,17.7-12.6,27.1-14.7,4.4-1,9.9-1.9,13.9.9,4.2,2.9,7,11,1.4,14.2-2,1.1-4.4,1.2-6.7,1.6-6.3.9-11.9,4.1-17.9,6.1-6,1.9-13.2,2.4-18.1-1.6-.7-.6-1.4-1.3-1.6-2.2-.4-1.6.8-3.1,1.9-4.2Z"/>
  </g>
  <g>
    <path class="st2" d="M240.5,103.7c24.4,16.8-16,40.9-30.1,44.2-15.4,3.6-33.8-2.4-40.8-16.7-1.6-3.3-2.5-7.6-.3-10.5.9-1.2,2.2-2,3.5-2.7,13.6-8,28.6-13.4,44-16.5,8-1.6,17-2.4,23.7,2.2Z"/>
    <path class="st2" d="M271.8,91c-.6,8.1-8.7,19-17.6,13.1-9.6-6.3-1.6-19.4,6.9-21.8,2.2-.6,4.6-.8,6.6.2,3,1.5,4.4,5.1,4.2,8.5Z"/>
  </g>
  <metadata>
    <sfw xmlns="http://ns.adobe.com/SaveForWeb/1.0/">
      <slices/>
      <sliceSourceBounds x="0" y="-79.89" width="750" height="579.89" bottomLeftOrigin="true"/>
    </sfw>
  </metadata>
</svg>